<?xml version="1.0" encoding="UTF-8" standalone="no"?>
<svg
   xmlns:dc="http://purl.org/dc/elements/1.1/"
   xmlns:cc="http://creativecommons.org/ns#"
   xmlns:rdf="http://www.w3.org/1999/02/22-rdf-syntax-ns#"
   xmlns:svg="http://www.w3.org/2000/svg"
   xmlns="http://www.w3.org/2000/svg"
   xmlns:sodipodi="http://sodipodi.sourceforge.net/DTD/sodipodi-0.dtd"
   xmlns:inkscape="http://www.inkscape.org/namespaces/inkscape"
   xml:space="preserve"
   width="2048px"
   height="2048px"
   style="shape-rendering:geometricPrecision; text-rendering:geometricPrecision; image-rendering:optimizeQuality; fill-rule:evenodd; clip-rule:evenodd"
   viewBox="0 0 2048 2048"
   version="1.1"
   id="svg16"
   sodipodi:docname="logo-color.svg"
   inkscape:version="1.0.2 (e86c870879, 2021-01-15)"><metadata
   id="metadata20"><rdf:RDF><cc:Work
       rdf:about=""><dc:format>image/svg+xml</dc:format><dc:type
         rdf:resource="http://purl.org/dc/dcmitype/StillImage" /></cc:Work></rdf:RDF></metadata><sodipodi:namedview
   pagecolor="#ffffff"
   bordercolor="#666666"
   borderopacity="1"
   objecttolerance="10"
   gridtolerance="10"
   guidetolerance="10"
   inkscape:pageopacity="0"
   inkscape:pageshadow="2"
   inkscape:window-width="1366"
   inkscape:window-height="711"
   id="namedview18"
   showgrid="false"
   inkscape:snap-global="true"
   inkscape:zoom="0.26660156"
   inkscape:cx="1024"
   inkscape:cy="1024"
   inkscape:window-x="0"
   inkscape:window-y="1"
   inkscape:window-maximized="1"
   inkscape:current-layer="_416240400"
   inkscape:document-rotation="0" />
 <defs
   id="defs4">
  <style
   type="text/css"
   id="style2">
   <![CDATA[
    .fil4 {fill:none}
    .fil0 {fill:#707070}
    .fil1 {fill:#898989}
    .fil2 {fill:#7A7A7A;fill-rule:nonzero}
    .fil3 {fill:#8B8C8C;fill-rule:nonzero}
   ]]>
  </style>
 </defs>
 <g
   id="Layer_x0020_1">
  <metadata
   id="CorelCorpID_0Corel-Layer" />
  <g
   id="_416240400">
   <path
   id="_416241312"
   class="fil0"
   d="M1525.03 651.138c73.3701,67.8142 102.194,174.064 95.1308,320.997 2.7437,210.042 -18.2917,359.104 -73.676,472.779 -56.5276,116.023 -147.226,193.658 -282.871,259.081l0.0188977 0.034252c-207.375,111.387 -241.368,101.264 -394.556,55.6418 -25.715,-7.65827 -55.0737,-16.4032 -89.6717,-25.7339 -111.043,-29.9445 -191.93,-104.157 -249.057,-215.524 -54.815,-106.869 -87.28,-248.219 -103.413,-417.501l-0.12874 -3.20551c3.07087,-467.878 171.246,-561.819 358.011,-560.594 65.2926,0.427559 130.677,13.0004 191.77,24.7453 77.9457,14.9858 148.311,28.513 188.779,11.3504 100.824,-25.5284 279.594,3.92244 359.662,77.9304z"
   style="fill:#f0bc74;fill-opacity:1" />
   <path
   id="_416241096"
   class="fil1"
   d="M1525.03 651.138c23.8925,22.0831 43.0548,48.2445 57.7997,78.5564 -77.7048,-7.41024 -206.129,110.759 -328.982,77.2524 -361.186,-98.5052 -792.591,-23.9185 -712.997,-164.176 3.84567,-6.77717 8.15552,-13.5886 12.9118,-20.3977 63.6969,-66.339 145.415,-85.8237 231.056,-85.2615 65.2926,0.427559 130.677,13.0004 191.77,24.7453 77.9457,14.9858 148.311,28.513 188.779,11.3504 100.824,-25.5284 279.594,3.92244 359.662,77.9304z"
   style="fill:#6b7280;fill-opacity:1" />
   <path
   id="_416241336"
   class="fil2"
   d="M1023.56 480.597c2.8689,-34.8567 8.85709,-66.476 18.1642,-94.402 14.5654,-43.6961 37.2343,-77.6245 68.752,-100.111 32.0492,-22.8685 71.863,-33.2197 120.046,-29.2536l-0.0011811 0.0106299c23.9079,1.97953 50.1957,7.64056 78.9532,17.2252l-20.511 62.0434c-23.2559,-7.7504 -44.4638,-12.3189 -63.6981,-13.9016l-0.12874 0c-32.067,-2.63977 -57.4607,3.46181 -76.7174,17.2016 -19.7917,14.1213 -34.5425,36.9674 -44.6504,67.2969 -7.43741,22.3158 -12.3319,48.8965 -14.8323,79.2757l-65.3764 -5.38465z"
   style="fill:#6b7280;fill-opacity:1" />
   <path
   id="_416240544"
   class="fil3"
   d="M922.313 568.616c6.76418,-16.5059 15.2197,-31.9713 25.3984,-46.3772 23.1862,-32.8205 55.0359,-59.6882 95.8642,-80.3741l15.737 -7.97363 14.8996 9.63662c41.2051,26.6504 76.1304,56.191 100.38,90.6367 10.8059,15.3484 19.487,31.5378 25.6937,48.7063 -15.7937,2.42953 -31.0595,6.12638 -45.3839,11.3362 -40.3855,14.6894 -130.428,-4.8189 -172.12,-13.4835 -20.1248,-4.18229 -40.2709,-8.33977 -60.4689,-12.1075z"
   style="fill:#6b7280;fill-opacity:1" />
   <path
   id="_416240520"
   class="fil1"
   d="M579.906 1518.41c6.11221,14.1626 22.5508,20.6882 36.7146,14.576 14.1626,-6.11457 20.6894,-22.552 14.5772,-36.7158 -44.3351,-102.301 -71.4839,-192.186 -80.7508,-269.143 -8.89725,-73.904 -1.15276,-134.997 23.8843,-182.77 7.13859,-13.6784 1.84134,-30.5599 -11.837,-37.6996 -13.6795,-7.14213 -30.5599,-1.84252 -37.702,11.8347 -30.5162,58.2296 -40.2614,130.141 -30.0213,215.21 9.87639,82.0182 38.4981,177.092 85.1351,284.707z"
   style="fill:#da9639;fill-opacity:1" />
  </g>
 </g>
 <rect
   class="fil4"
   width="2048"
   height="2048"
   id="rect14" />
</svg>
